<svg xmlns="http://www.w3.org/2000/svg" width="555" height="127" viewBox="0 0 555 127"><g transform="translate(-1006 -1400)"><g transform="translate(1201.992 1400)"><text transform="translate(51.008 123)" fill="#5e42a6" font-size="15" font-family="Montserrat-SemiBold, Montserrat" font-weight="600"><tspan x="-51.075" y="0">PULSECHAIN</tspan></text><g transform="translate(9 0)"><circle cx="42" cy="42" r="42" transform="translate(0.008 0)" fill="#5e42a6"/><g transform="translate(27.147 28.229)"><path d="M1073.984,260.623a1.115,1.115,0,0,0,.791.2l7.266.005a.936.936,0,0,1,.629.505c.335.57.673,1.14,1.052,1.779.227-.892.431-1.7.636-2.5l.16-.641h0l.256-1.033h0a8.3,8.3,0,0,0,.334-1.281,5.609,5.609,0,0,0,.254-.957h0l.279-1.051.232-.879q.084-.32.166-.64l.172-.722h0c.035-.125.073-.249.1-.375a1.359,1.359,0,0,1,.561-.976h0c.694-.14,1.035.064,1.2.715l.39,2.717q.126.962.252,1.923a12.967,12.967,0,0,0,.216,1.444c.067.832.193,1.656.339,2.477h0c.076.605.148,1.211.231,1.816.157,1.144.319,2.287.48,3.43l.055,0q.564-2.184,1.128-4.369h0l.434-1.753h0a7.168,7.168,0,0,0,.326-1.254h0c.226-.5.2-1.092.532-1.557h0a.847.847,0,0,1,1.386.3c.1.169.209.336.315.5.415.711.836,1.418,1.237,2.136a.438.438,0,0,0,.452.24c.747-.009,1.495,0,2.243,0q.652,0,1.3-.011c.538,0,1.076.007,1.614-.016h0a7.874,7.874,0,0,0,1.65-.014h0a.782.782,0,0,0,.615-1.172c-.207-.407-.465-.788-.7-1.181a9.133,9.133,0,0,0-.666-1.175l-1.2-2.081h0l-2.276-3.938c-.52-.909-1.025-1.826-1.565-2.722a1.408,1.408,0,0,0-1.237-.693c-1.238-.01-2.476,0-3.714,0a2.544,2.544,0,0,0-.693,0h-5.476l-1.3,0c-.036,0-.073,0-.11,0l-2.907-.01a.38.38,0,0,0-.265.067,1.1,1.1,0,0,0-.81.448,6.184,6.184,0,0,0-.8,1.313,2.2,2.2,0,0,0-.379.646l-.323.56a3.315,3.315,0,0,0-.407.719l-.619,1.042-.411.722h0l-.589,1.033a4.179,4.179,0,0,0-.46.8,2.54,2.54,0,0,0-.417.717h0a18.891,18.891,0,0,0-1.109,1.926c-.356.6-.726,1.2-1.061,1.81A.779.779,0,0,0,1073.984,260.623Z" transform="translate(-1073.671 -247.802)" fill="#fff"/><path d="M1102.582,266.337c-1.1-.016-2.2,0-3.306.01h-2.883c-.119-.006-.239-.017-.357-.017-1.558.014-1.339.02-2.068-1.2-.21-.353-.423-.7-.667-1.109l-.421,1.7-.4,1.515h0l-.527,2.081h0a7.3,7.3,0,0,0-.364,1.445,6.469,6.469,0,0,0-.33,1.276h0a2.969,2.969,0,0,0-.252.963h0a4.858,4.858,0,0,0-.254.954h0c-.042.125-.088.248-.122.375-.154.567-.487.87-.91.824-.461-.05-.713-.379-.786-.953-.089-.695-.207-1.386-.313-2.079-.028-.26-.049-.521-.087-.779-.133-.914-.212-1.837-.4-2.743-.081-.663-.151-1.327-.244-1.989-.12-.864-.257-1.725-.387-2.588q-.217-1.718-.435-3.436l-.1-.006q-.376,1.529-.751,3.056h0c-.094.329-.2.655-.281.988-.193.82-.468,1.621-.606,2.455a16.3,16.3,0,0,0-.482,1.774,1.385,1.385,0,0,1-.424.779h0a.927.927,0,0,1-1.253-.4q-.776-1.348-1.55-2.695a.357.357,0,0,0-.347-.208c-1.4.013-2.8.016-4.2.021h0c-.873,0-1.746-.013-2.619-.012a.7.7,0,0,0-.66.419.737.737,0,0,0-.006.816c.178.32.374.63.563.944a1.859,1.859,0,0,0,.334.561l.159.32.435.729h0a13.493,13.493,0,0,0,.877,1.521,15.947,15.947,0,0,0,.879,1.52c.372.673.735,1.352,1.161,1.994a21.459,21.459,0,0,0,1.2,2.082,11.546,11.546,0,0,0,.806,1.4,1.439,1.439,0,0,0,1.245.671c.386.011.773-.005,1.159-.01h12.9a1.472,1.472,0,0,0,1.391-.743c.19-.3.351-.616.525-.924a2.426,2.426,0,0,0,.337-.612,4.726,4.726,0,0,0,.561-.969h0a9.415,9.415,0,0,0,.656-1.127h0l.757-1.3h0c.35-.567.7-1.133.991-1.732a8.854,8.854,0,0,0,.713-1.224l.236-.4.322-.558.791-1.364c.162-.273.341-.537.482-.82A.8.8,0,0,0,1102.582,266.337Zm-25.421.06a.165.165,0,0,1-.081-.048A.407.407,0,0,0,1077.161,266.4Z" transform="translate(-1073.672 -251.781)" fill="#fff"/></g></g></g><g transform="translate(1342.068 1400)"><text transform="translate(41.932 123)" fill="#5e42a6" font-size="15" font-family="Montserrat-SemiBold, Montserrat" font-weight="600"><tspan x="-32.872" y="0">SOLANA</tspan></text><g transform="translate(0 0)"><circle cx="42" cy="42" r="42" transform="translate(-0.068 0)" fill="#5e42a6"/><g transform="translate(24.429 28.23)"><path d="M1394.617,278.18a1.15,1.15,0,0,1,.813-.336h28.044a.575.575,0,0,1,.406.981l-5.54,5.54a1.15,1.15,0,0,1-.813.336h-28.044a.575.575,0,0,1-.406-.981Z" transform="translate(-1388.908 -257.16)" fill="#fff"/><path d="M1394.617,248.138a1.181,1.181,0,0,1,.813-.335h28.044a.574.574,0,0,1,.406.98l-5.54,5.54a1.15,1.15,0,0,1-.813.336h-28.044a.575.575,0,0,1-.406-.981Z" transform="translate(-1388.908 -247.803)" fill="#fff"/><path d="M1418.341,263.159a1.15,1.15,0,0,0-.813-.336h-28.044a.575.575,0,0,0-.406.981l5.54,5.54a1.15,1.15,0,0,0,.813.336h28.044a.575.575,0,0,0,.406-.981Z" transform="translate(-1388.908 -252.481)" fill="#fff"/></g></g></g><g transform="translate(1477 1400)"><text transform="translate(42 123)" fill="#5e42a6" font-size="15" font-family="Montserrat-SemiBold, Montserrat" font-weight="600"><tspan x="-17.355" y="0">ADA</tspan></text><g transform="translate(0 0)"><circle cx="42" cy="42" r="42" transform="translate(0 0)" fill="#5e42a6"/><g transform="translate(27.098 28.229)"><g transform="translate(0 0)"><path d="M1404.65,696.586a2.008,2.008,0,0,0,1.891,2.115h.12a2.007,2.007,0,1,0-2.011-2.115Z" transform="translate(-1396.479 -682.915)" fill="#fff"/><path d="M1393.468,696.694a.649.649,0,1,0,.611.684.644.644,0,0,0-.611-.684Z" transform="translate(-1392.784 -683.54)" fill="#fff"/><path d="M1404.04,679.967a.65.65,0,1,0-.588-1.16.65.65,0,0,0,.588,1.16Z" transform="translate(-1395.997 -677.947)" fill="#fff"/><path d="M1406.766,684.826a1,1,0,1,0-1.343-.445A1,1,0,0,0,1406.766,684.826Z" transform="translate(-1396.688 -679.254)" fill="#fff"/><path d="M1397.3,688.541a.827.827,0,1,0-.238-1.144h0A.823.823,0,0,0,1397.3,688.541Z" transform="translate(-1394.074 -680.528)" fill="#fff"/><path d="M1398.759,696.175a1,1,0,1,0,.945,1.057h0A1,1,0,0,0,1398.759,696.175Z" transform="translate(-1394.315 -683.378)" fill="#fff"/><path d="M1397.428,705.913a.828.828,0,1,0,1.113.366h0a.831.831,0,0,0-1.113-.366Z" transform="translate(-1394.089 -686.384)" fill="#fff"/><path d="M1403.047,692.184a1.177,1.177,0,1,0-.341-1.629,1.17,1.17,0,0,0,.341,1.629Z" transform="translate(-1395.814 -681.461)" fill="#fff"/><path d="M1421.033,684.735a1,1,0,1,0-.286-1.391h0a.993.993,0,0,0,.286,1.391Z" transform="translate(-1401.441 -679.242)" fill="#fff"/><path d="M1424.085,679.89a.649.649,0,1,0-.191-.906.67.67,0,0,0,.191.906Z" transform="translate(-1402.443 -677.934)" fill="#fff"/><path d="M1420.5,694.662a2.006,2.006,0,1,0-.222,4.005h.111a2,2,0,0,0,.111-4.005Z" transform="translate(-1400.757 -682.906)" fill="#fff"/><path d="M1408.282,691.635a2.008,2.008,0,1,0,.89-2.7,2.011,2.011,0,0,0-.89,2.7Z" transform="translate(-1397.544 -681.055)" fill="#fff"/><path d="M1430.678,688.521a.827.827,0,1,0-1.12-.366.84.84,0,0,0,1.12.366Z" transform="translate(-1404.212 -680.508)" fill="#fff"/><path d="M1423.542,690.095a1.178,1.178,0,1,0,1.582.525A1.178,1.178,0,0,0,1423.542,690.095Z" transform="translate(-1402.162 -681.446)" fill="#fff"/><path d="M1413.96,679.244a.828.828,0,1,0-.779-.882.837.837,0,0,0,.779.882Z" transform="translate(-1399.137 -677.589)" fill="#fff"/><path d="M1413.8,686.465a1.178,1.178,0,1,0-1.113-1.24,1.17,1.17,0,0,0,1.113,1.24Z" transform="translate(-1398.982 -679.62)" fill="#fff"/><path d="M1404.248,704.019a1.178,1.178,0,1,0-1.582-.525A1.179,1.179,0,0,0,1404.248,704.019Z" transform="translate(-1395.823 -685.126)" fill="#fff"/><path d="M1415.261,689.625a2.007,2.007,0,1,0,1.677-.906A2,2,0,0,0,1415.261,689.625Z" transform="translate(-1399.683 -681.056)" fill="#fff"/><path d="M1418.758,701.723a2.007,2.007,0,1,0-.89,2.694h0a2,2,0,0,0,.9-2.678C1418.765,701.732,1418.765,701.732,1418.758,701.723Z" transform="translate(-1399.691 -684.762)" fill="#fff"/><path d="M1424.742,701.929a1.177,1.177,0,1,0,.342,1.629,1.169,1.169,0,0,0-.342-1.629Z" transform="translate(-1402.171 -685.11)" fill="#fff"/><path d="M1430.247,697.163a1,1,0,1,0-1.057.945h0A1.008,1.008,0,0,0,1430.247,697.163Z" transform="translate(-1403.829 -683.356)" fill="#fff"/><path d="M1434.873,696.6a.648.648,0,1,0,.612.684A.653.653,0,0,0,1434.873,696.6Z" transform="translate(-1405.681 -683.511)" fill="#fff"/><path d="M1430.807,705.893a.827.827,0,1,0,.238,1.144.822.822,0,0,0-.238-1.144Z" transform="translate(-1404.229 -686.364)" fill="#fff"/><path d="M1404.173,714.7a.648.648,0,1,0,.183.9h0A.639.639,0,0,0,1404.173,714.7Z" transform="translate(-1396.018 -689.115)" fill="#fff"/><path d="M1424.23,714.624a.65.65,0,1,0,.588,1.16.65.65,0,0,0-.588-1.16Z" transform="translate(-1402.468 -689.103)" fill="#fff"/><path d="M1411.776,703.739a2.009,2.009,0,1,0-2.782.58,2.015,2.015,0,0,0,2.782-.58Z" transform="translate(-1397.55 -684.766)" fill="#fff"/><path d="M1406.915,709.538a1,1,0,1,0,.286,1.391h0A.994.994,0,0,0,1406.915,709.538Z" transform="translate(-1396.701 -687.49)" fill="#fff"/><path d="M1414.021,715.187a.828.828,0,1,0,.779.882.837.837,0,0,0-.779-.882Z" transform="translate(-1399.126 -689.3)" fill="#fff"/><path d="M1413.866,707.649a1.178,1.178,0,1,0,1.113,1.239,1.171,1.171,0,0,0-1.113-1.239Z" transform="translate(-1398.964 -686.952)" fill="#fff"/><path d="M1421.187,709.447a1,1,0,1,0,1.359.445,1.015,1.015,0,0,0-1.359-.445Z" transform="translate(-1401.46 -687.478)" fill="#fff"/></g></g></g></g><g transform="translate(-29.885 18.116)"><circle cx="46" cy="46" r="46" transform="translate(1035.884 1399.884)" fill="#5e42a6"/><text transform="translate(1081.885 1459.884)" fill="#fff" font-size="38" font-family="Montserrat-Medium, Montserrat" font-weight="500"><tspan x="-10.887" y="0">?</tspan></text></g><path d="M18,3.375A14.625,14.625,0,1,0,32.625,18,14.623,14.623,0,0,0,18,3.375ZM21.052,23.7a1.362,1.362,0,0,1,0,1.92,1.34,1.34,0,0,1-.956.394,1.364,1.364,0,0,1-.963-.4l-6.609-6.63a1.355,1.355,0,0,1,.042-1.87l6.708-6.729a1.357,1.357,0,1,1,1.92,1.92L15.434,18Z" transform="translate(1131.375 1446.5)" fill="#5e42a6"/></g></svg>